
<svg xmlns="http://www.w3.org/2000/svg" xmlns:xlink="http://www.w3.org/1999/xlink" width="16pt" height="16pt" viewBox="0 0 16 16" version="1.1">
<g>
<path d="M 8.386719 0.195312 C 4.167969 0.195312 0 2.289062 0 5.671875 C 0 7.824219 1.628906 9.050781 2.613281 9.050781 C 3.023438 9.050781 3.257812 8.207031 3.257812 7.964844 C 3.257812 7.683594 2.28125 7.078125 2.28125 5.894531 C 2.28125 3.4375 4.796875 1.695312 8.054688 1.695312 C 10.855469 1.695312 12.925781 2.878906 12.925781 5.050781 C 12.925781 6.675781 12.050781 9.71875 9.214844 9.71875 C 8.191406 9.71875 7.316406 9.167969 7.316406 8.378906 C 7.316406 7.226562 8.402344 6.105469 8.402344 4.910156 C 8.402344 2.886719 4.539062 3.253906 4.539062 5.699219 C 4.539062 6.214844 4.625 6.785156 4.933594 7.253906 C 4.367188 9.066406 3.207031 11.773438 3.207031 13.644531 C 3.207031 14.222656 3.316406 14.789062 3.390625 15.367188 C 3.53125 15.480469 3.460938 15.472656 3.675781 15.414062 C 5.75 13.304688 5.675781 12.890625 6.613281 10.132812 C 7.117188 10.847656 8.425781 11.234375 9.460938 11.234375 C 13.828125 11.234375 15.789062 8.066406 15.789062 5.214844 C 15.789062 2.179688 12.261719 0.195312 8.386719 0.195312 Z M 8.386719 0.195312 "/>
</g>
</svg>
