
<svg xmlns="http://www.w3.org/2000/svg" xmlns:xlink="http://www.w3.org/1999/xlink" width="18pt" height="16pt" viewBox="0 0 18 16" version="1.1">
<g >
<path d="M 16.148438 4.742188 C 16.160156 4.882812 16.160156 5.027344 16.160156 5.167969 C 16.160156 9.503906 12.449219 14.496094 5.664062 14.496094 C 3.574219 14.496094 1.632812 13.960938 0 13.027344 C 0.296875 13.054688 0.582031 13.066406 0.890625 13.066406 C 2.617188 13.066406 4.203125 12.546875 5.472656 11.664062 C 3.847656 11.632812 2.488281 10.691406 2.023438 9.390625 C 2.25 9.421875 2.476562 9.441406 2.71875 9.441406 C 3.050781 9.441406 3.378906 9.402344 3.6875 9.328125 C 2 9.023438 0.730469 7.707031 0.730469 6.113281 L 0.730469 6.070312 C 1.222656 6.316406 1.792969 6.46875 2.398438 6.488281 C 1.40625 5.898438 0.753906 4.894531 0.753906 3.757812 C 0.753906 3.148438 0.9375 2.589844 1.257812 2.101562 C 3.074219 4.089844 5.800781 5.390625 8.863281 5.53125 C 8.804688 5.289062 8.773438 5.035156 8.773438 4.78125 C 8.773438 2.976562 10.417969 1.503906 12.460938 1.503906 C 13.523438 1.503906 14.480469 1.898438 15.15625 2.539062 C 15.988281 2.394531 16.789062 2.121094 17.496094 1.746094 C 17.222656 2.507812 16.640625 3.148438 15.875 3.554688 C 16.617188 3.480469 17.335938 3.300781 18 3.046875 C 17.496094 3.695312 16.871094 4.273438 16.148438 4.742188 Z M 16.148438 4.742188 "/>
</g>
</svg>
